<svg xmlns="http://www.w3.org/2000/svg" xmlns:xlink="http://www.w3.org/1999/xlink" version="1.1" x="0px" y="0px" viewBox="0 0 1024 1280" style="enable-background:new 0 0 1024 1024;" xml:space="preserve"><g><g><g><path d="M871.1,87.9c0,15.5,0,31,0,46.5c0,39.7,0,79.4,0,119.2c0,53.8,0,107.7,0,161.5c0,57.8,0,115.6,0,173.5     c0,51.7,0,103.4,0,155.1c0,35.5,0,71,0,106.5c0,8.4,0,16.8,0,25.3c0,1.3,0,2.7,0,4c0,1.9-0.1,3.7-0.2,5.6c0,0.4,0,3.9-0.4,4.1     c0.8-0.4,0.7-4.5,0-0.6c-0.5,2.9-1.1,5.7-1.9,8.5c-0.6,2.1-1.3,4.3-2,6.3c-0.3,0.8-0.7,4.2-0.4,1.3c0.3-2.8-0.1,0.3-0.6,1.2     c-2.1,4.6-4.7,8.9-7.6,13c-0.5,0.7-1.2,2.3-1.9,2.6c0.5-0.7,1-1.3,1.5-2c-0.5,0.7-1.1,1.3-1.7,2c-1.4,1.6-2.9,3.2-4.4,4.8     c-1.5,1.5-3.1,3-4.8,4.4c-0.6,0.5-2.3,2.4-3,2.5c2.3-1.8,2.6-2,0.9-0.8c-0.4,0.3-0.7,0.5-1.1,0.8c-3.9,2.7-8.1,5.2-12.5,7.2     c-0.6,0.3-4.3,1.3-1.2,0.6c3.2-0.7-0.8,0.3-1.3,0.4c-2.5,0.9-5.1,1.7-7.6,2.4c-2.4,0.6-4.8,1.1-7.2,1.6c-3.9,0.7,0.1,0.8,0.6,0     c-0.2,0.4-3.6,0.3-4.1,0.4c-2.3,0.2-4.6,0.2-7,0.2c-1.1,0-7.6,0.4-8.4-0.5c0.9,0.1,1.7,0.2,2.6,0.4c-0.9-0.1-1.8-0.3-2.7-0.4     c-0.9-0.2-1.8-0.3-2.7-0.5c-2.6-0.6-5.3-1.2-7.9-2c-1.3-0.4-5.7-1.2-6.3-2.3c0.8,0.3,1.5,0.7,2.3,1c-0.6-0.3-1.2-0.5-1.8-0.8     c-1.4-0.7-2.8-1.3-4.2-2.1c-1.9-1-3.8-2.2-5.7-3.3c-1.1-0.7-2.2-1.4-3.3-2.2c-0.3-0.2-3.7-2.9-1.1-0.8c2.6,2.1-0.8-0.7-1.1-0.9     c-1-0.9-2-1.7-3-2.6c-1.9-1.8-3.8-3.7-5.5-5.6c-0.7-0.8-1.4-1.7-2.2-2.5c-2-2.2-1.8-0.4,0.3,0.4c-1.3-0.5-3-4.2-3.8-5.4     c-1.4-2.2-2.8-4.5-4-6.9c-0.4-0.8-0.8-1.6-1.2-2.4c-0.4-0.8-0.8-1.6-1.1-2.4c1.1,2.7,1.3,3.1,0.5,1.1c-1.6-4.2-2.9-8.5-3.9-12.9     c-0.3-1.3-0.5-2.7-0.8-4c-1-4.5,0.3,3.5,0,0.5c-0.3-3-0.6-6-0.6-9c0-1.1,0-2.3,0-3.4c0-41.5,0-83,0-124.6c0-46.8,0-93.6,0-140.4     c0-2.7,0-5.4,0-8.1c0-10.8-9.2-20-20-20c-22.4,0-44.8,0-67.2,0c-11.4,0-22.9,0-34.3,0c-1,0-2,0-2.9,0c-0.1,0-0.3,0-0.4,0     c-0.5,0-0.9,0-1.4,0c-2.2-0.2-1.8-0.1,1.3,0.3c0,0.1-4.1-1.2-4.4-1.2c-2.4-0.2,4,2.4,0.6,0.2c-0.2-0.1-3.4-1.9-3.3-2     c0.1-0.2,3.5,3.2,0.1-0.2c-3.3-3.3,0,0-0.2,0.1c-0.1,0.1-1.9-3.1-2-3.3c-1.7-2.7,1.2,1,0.4,1.2c-0.2,0-1.1-3.5-1.1-3.8     c-0.4-2.2-0.4-1.7,0.1,1.4c-0.1-0.9-0.1-1.8-0.1-2.7c-0.8-39.5,0-79,0-118.5c0-49.8,0-99.6,0-149.5c0-7.1,0-14.2,0.5-21.4     c0.2-2.5,0.4-5.1,0.6-7.6c0.2-2.2-0.1-5.6,0.8-7.6c-0.1,0.9-0.2,1.7-0.3,2.6c0.1-0.9,0.3-1.8,0.4-2.7c0.2-1.4,0.4-2.7,0.7-4.1     c0.5-2.7,1-5.4,1.5-8.1c2.2-10.6,5.1-21,8.6-31.2c0.7-2.1,1.5-4.2,2.3-6.3c0.5-1.2,1-2.5,1.5-3.7c0.7-1.6,0.8-4.9,0-0.2     c0.4-2.4,2.2-5.1,3.3-7.3c1.1-2.4,2.3-4.8,3.5-7.2c4.8-9.4,10.2-18.6,16.2-27.3c1.2-1.8,2.5-3.6,3.8-5.4c0.8-1.1,1.6-2.1,2.4-3.2     c2.7-3.7-2.8,3.5,0.1-0.1c3.3-4.1,6.6-8.2,10.2-12.1c6.9-7.7,14.3-14.9,22.1-21.7c1.8-1.6,3.7-3.1,5.6-4.7c1-0.8,2.1-1.6,3.1-2.5     c3.6-2.9-3.6,2.7,0.1-0.1c4.3-3.1,8.5-6.2,13-9.1c8.5-5.6,17.3-10.6,26.5-15.1c2.4-1.2,4.8-2.3,7.2-3.4c1.1-0.5,2.5-1.4,3.7-1.6     c-4.7,0.8-1.5,0.6,0.2,0c5-2,10-3.8,15.1-5.5c9.9-3.2,20-5.8,30.2-7.7c2.7-0.5,5.4-1,8.1-1.4c0.5-0.1,0.9-0.1,1.4-0.2     c2.2-0.3,1.8-0.3-1.2,0.2c0.9-0.4,2.4-0.3,3.4-0.4c5.8-0.7,11.5-1.1,17.3-1.3c5.7-0.2,11.4-0.2,17.1-0.2c7.4,0,14.8,0,22.2,0     c2.2,0,4.3,0,6.5,0c0.3,0,0.6,0,0.8,0c0.5,0,0.9,0,1.4,0c2.2,0.2,1.8,0.1-1.3-0.3c0,0.1,5.1,1.1,5.1,1.4     c-0.1,0.2-4.2-2.2-0.1,0.2c4.1,2.4-0.1,0,0.1-0.2c0,0,1.7,1.5,1.9,1.7c3.3,3.3,0,0,0.2-0.1c0.1-0.1,1.9,3.1,2,3.3     c2.3,3.6-1-4.2,0,0c0.1,0.2,1,3.8,1,3.8c-0.1-0.9-0.2-1.8-0.4-2.7C871,86.1,871.1,87,871.1,87.9c0.2,10.5,9,20.5,20,20     c10.6-0.5,20.3-8.8,20-20c-0.6-28.4-23.4-49.9-51.6-50c-11.7,0-23.4,0-35.1,0c-46.5,0.1-92.8,12.7-132.8,36.5     c-78.8,46.9-128.4,133.3-128.6,225c-0.1,43.1,0,86.3,0,129.4c0,47.6-0.2,95.3,0,142.9c0.1,18.9,9.8,37.3,27.1,45.9     c12.2,6,24.5,5.6,37.5,5.6c27.9,0,55.9,0,83.8,0c2.2,0,4.3,0,6.5,0c-6.7-6.7-13.3-13.3-20-20c0,36.4,0,72.8,0,109.2     c0,50.4,0,100.7,0,151.1c0,4.6,0,9.2,0,13.8c0,17.3,4,33.8,11.4,49.3c9.4,19.5,25.8,36.4,44.8,46.6c21.8,11.6,46.1,15,70.3,10.8     c46.2-7.9,80.6-48.1,86-93.7c0.9-7.2,0.7-14.3,0.7-21.6c0-28.4,0-56.8,0-85.2c0-48.4,0-96.9,0-145.3c0-57.9,0-115.7,0-173.6     c0-56.6,0-113.2,0-169.8c0-45.2,0-90.4,0-135.6c0-22.8,0-45.6,0-68.3c0-1,0-2,0-3c0-10.5-9.2-20.5-20-20     C880.2,68.4,871.1,76.7,871.1,87.9z"/></g></g><g><g><path d="M421.1,87.9c0,17,0,34,0,50.9c0,39,0,77.9,0,116.9c0,42.9,0,85.7,0,128.6c0,29.1,0,58.2,0,87.3     c0,6.9,0.2,13.8-0.3,20.7c-0.1,1.8-0.9,4.2-0.6,5.9c-0.1-0.6,0.8-4.6,0.1-0.9c-0.2,1-0.3,1.9-0.5,2.9c-0.8,4.1-1.8,8.1-3,12.1     c-0.6,1.8-1.2,3.7-1.8,5.5c-0.2,0.7-2.4,6.4-1.3,3.7c1-2.7-1.3,2.9-1.6,3.5c-0.9,1.9-1.9,3.8-2.9,5.7c-1.8,3.3-3.8,6.6-6,9.7     c-1,1.5-2,3.4-3.3,4.6c2.9-2.7,1.3-1.7,0.5-0.7c-0.9,1.1-1.8,2.2-2.7,3.3c-2.5,2.9-5.1,5.6-7.8,8.2c-1.4,1.3-2.8,2.6-4.2,3.8     c-0.7,0.6-1.4,1.2-2.2,1.8c-0.5,0.4-3.7,2.9-1.3,1.1c2.3-1.7-2.6,1.8-3.1,2.2c-1.6,1.1-3.1,2.1-4.8,3.1c-3.4,2.1-7,4.1-10.6,5.9     c-6.2,3.1-9.9,10.6-9.9,17.3c0,13.9,0,27.7,0,41.6c0,30.9,0,61.8,0,92.7c0,32.5,0,65.1,0,97.6c0,18.3,0,36.5,0,54.8     c0,3.4-0.2,6.7-0.4,10.1c-0.3,3.9,0.7-3.7,0,0.1c-0.2,1.3-0.5,2.7-0.7,4c-0.6,3.1-1.5,6.1-2.4,9.1c-0.4,1.3-0.9,2.5-1.3,3.8     c-1.2,3.5,1.6-3.3,0,0.1c-1.2,2.6-2.5,5.1-3.9,7.6c-1.4,2.5-3,4.8-4.6,7.2c-2,3.1,2.3-2.7,0,0.1c-1,1.2-2,2.3-3,3.5     c-1.9,2.1-3.9,4.1-6,6c-1,0.9-1.9,1.7-3,2.6c-0.5,0.4-1,0.8-1.5,1.2c-2,1.7,3.1-2.1,0.9-0.7c-4.9,3-9.5,6.1-14.7,8.6     c-0.3,0.1-1.5,0.9-1.8,0.8c-0.2,0,3.9-1.4,1.7-0.8c-1.3,0.4-2.5,0.9-3.7,1.4c-3,1-6,1.8-9,2.5c-1.3,0.3-2.7,0.5-4,0.8     c-0.7,0.1-1.4,0.1-2,0.3c0,0,4.2-0.4,1.9-0.3c-3.2,0.2-6.4,0.5-9.7,0.5c-2.8,0-5.5-0.3-8.3-0.5c-2.3-0.1,1.9,0.3,1.9,0.3     c-0.6-0.2-1.4-0.2-2-0.3c-1.6-0.3-3.1-0.6-4.6-0.9c-2.8-0.6-5.6-1.4-8.4-2.4c-1.3-0.4-2.5-1-3.7-1.4c-2.2-0.7,1.9,0.7,1.7,0.8     c-0.4,0.1-2-0.9-2.4-1.1c-2.6-1.2-5.1-2.6-7.5-4c-0.9-0.5-7.2-3.8-7.1-4.7c0-0.1,3.1,2.6,1.5,1.1c-0.5-0.4-1-0.8-1.5-1.2     c-1-0.8-2-1.7-3-2.6c-2.2-2.1-4.4-4.2-6.4-6.5c-0.9-1-1.7-2-2.5-3c-2.4-2.8,2,3,0-0.1c-1.7-2.5-3.4-5.1-4.9-7.7     c-1.3-2.3-2.4-4.7-3.6-7c-1.6-3.4,1.2,3.4,0-0.1c-0.5-1.5-1.1-2.9-1.5-4.4c-0.9-2.8-1.6-5.6-2.2-8.4c-0.3-1.3-0.5-2.7-0.7-4     c-0.6-3.4,0.4,3.9,0-0.8c-1.3-14.9-0.3-30.3-0.3-45.3c0-30.4,0-60.7,0-91.1c0-32.8,0-65.7,0-98.5c0-19.4,0-38.8,0-58.2     c0-1,0-1.9,0-2.9c0-6.7-3.7-14.2-9.9-17.3c-3.8-1.9-7.6-4-11.2-6.3c-2-1.3-4-2.6-5.9-4c-0.6-0.4-1.7-1.5-2.3-1.7     c2,1.5,2.4,1.9,1.2,0.9c-0.6-0.4-1.1-0.9-1.7-1.3c-3.3-2.7-6.4-5.6-9.4-8.7c-1.5-1.5-2.9-3.1-4.3-4.7c-0.6-0.7-1.2-1.4-1.8-2.2     c-0.4-0.5-3.4-4.3-1.5-1.9c2,2.6-0.8-1.2-1-1.4c-0.6-0.8-1.1-1.5-1.6-2.3c-1.2-1.8-2.4-3.6-3.5-5.4c-2.3-3.9-4.5-7.9-6.4-12     c-0.1-0.3-1.9-4.6-0.7-1.6c1.2,3.1-0.5-1.4-0.6-1.6c-0.7-1.8-1.3-3.6-1.9-5.5c-1.5-4.6-2.7-9.4-3.6-14.1c-0.2-1-0.3-1.9-0.5-2.9     c-0.9-4.8,0.3,3.3,0,0.2c-0.2-2.2-0.5-4.5-0.6-6.7c-0.2-2.5-0.2-5.1-0.2-7.6c0-0.5,0-1.1,0-1.6c0-3.3,0-6.6,0-9.9     c0-33.9,0-67.8,0-101.6c0-48.8,0-97.5,0-146.3c0-37.9,0-75.8,0-113.7c0-7.2-0.1-14.4,0-21.6c0-0.1,0-0.2,0-0.3     c0.1-5.3,0.1,0-0.2-0.1c-0.1,0,0.7-2.9,0.8-3.2c0.2-0.6,0.4-1.2,0.6-1.9c-1.1,2.6-1.4,3.2-0.7,1.8c0.6-0.7,1.2-2,1.6-2.8     c1.5-2.7-0.3,1.5-0.8,1c0.4,0.3,4.8-6.2,2.6-2.8c-1.4,2.1,0,0.1,1.2-0.6c0.3-0.2,2.3-1.3,2.3-1.2c0.4,0.8-4.2,1.3-1.2,0.6     c0.1,0,3.8-1,3.8-1c0,0.4-4.9,0.4-0.6,0.2c0.3,0,0.5,0,0.8,0c0.4,0,0.7,0,1.1,0c2.1,0,4.3,0,6.4,0c5.8,0,11.7,0,17.5,0     c3.3,0,6.5,0,9.8,0c-6.7-6.7-13.3-13.3-20-20c0,35.3,0,70.6,0,106c0,49.1,0,98.2,0,147.3c0,4.4,0,8.9,0,13.3     c0.2,20.2,14.1,39.1,34.6,42.6c8.5,1.4,18.4,1.6,26.8-0.2c14.4-3,25.5-13.8,30.7-27.2c2.5-6.5,2.6-13.3,2.6-20.1c0-45,0-90,0-135     c0-41.5,0-83.1,0-124.6c0-0.7,0-1.4,0-2.1c-6.7,6.7-13.3,13.3-20,20c22.9,0,45.8,0,68.6,0c-6.7-6.7-13.3-13.3-20-20     c0,35.3,0,70.6,0,106c0,49.1,0,98.2,0,147.3c0,4.4,0,8.9,0,13.3c0.2,20.2,14.1,39.1,34.6,42.6c8.5,1.4,18.4,1.6,26.8-0.2     c14.4-3,25.5-13.8,30.7-27.2c2.5-6.5,2.6-13.3,2.6-20.1c0-45,0-90,0-135c0-41.5,0-83.1,0-124.6c0-0.7,0-1.4,0-2.1     c-6.7,6.7-13.3,13.3-20,20c10.3,0,20.5,0,30.8,0c1.4,0,2.8,0,4.1,0c0.5,0,1,0,1.5,0c4.2,0-4-1.2,0,0c1,0.3,2.1,0.7,3.2,0.9     c2,0.4-3.9-2.3-0.6-0.2c0.9,0.6,1.8,1.2,2.8,1.7c2,0.9-2.9-2.9-0.5-0.3c0.6,0.6,1.5,1.8,2.2,2.3c1.7,1.1-2-3.4-0.4-0.5     c0.1,0.1,2,3.3,1.9,3.4c-0.4,0.2-1.4-4.8-0.4-0.5c0.1,0.3,0.9,3.2,0.8,3.2C421,87.9,421,82.7,421.1,87.9c0.2,10.5,9,20.5,20,20     c10.6-0.5,20.3-8.8,20-20c-0.6-28.1-23.1-49.8-51.1-50c-11.3-0.1-22.6,0-33.9,0c-10.8,0-20,9.2-20,20c0,33.7,0,67.4,0,101.1     c0,49,0,98.1,0,147.1c0,5.5,0,11,0,16.5c0,0.9,0,1.8,0,2.7c0.2,4.1-0.1-1.3,0.3-1.2c0,0-0.8,3.9-1.1,3.8c-0.5-0.1,2.4-4.1,0-0.7     c-1.6,2.2,3.6-3.3,0.4-0.5c-0.3,0.3-0.6,0.6-0.9,0.9c-1.3,1.1-1.3,1.1,0,0.1c0.3-0.3,0.7-0.5,1-0.8c-0.7,0.5-1.5,0.9-2.2,1.3     c2.8-1.1,3.2-1.3,1.1-0.5c-0.4,0.1-0.9,0.2-1.3,0.4c-3.5,1.3,3.9,0.1-0.5-0.1c-1.4-0.1-2.8,0-4.2,0c-1.3,0-2.7,0-4,0     c-0.2,0-0.5,0-0.7,0c-4.1,0.2,3.5,1.3-0.1,0.1c-0.4-0.1-0.9-0.2-1.3-0.4c-2-0.7-1.7-0.5,1.1,0.5c0,0-2.3-1.2-2.2-1.3     c-0.2,0.3,3.6,2.9,0.1-0.2c-3.2-2.8,1.9,2.7,0.4,0.5c-2.4-3.4,0.5,0.6,0,0.7c-0.3,0-0.7-2.8-0.9-3.2c-1.1-2,0,4.8,0.2,0.6     c0.2-3.1,0-6.2,0-9.3c0-45.5,0-90.9,0-136.4c0-39.9,0-79.8,0-119.6c0-0.7,0-1.4,0-2.1c0-10.8-9.2-20-20-20c-22.9,0-45.8,0-68.6,0     c-10.8,0-20,9.2-20,20c0,33.7,0,67.4,0,101.1c0,49,0,98.1,0,147.1c0,5.5,0,11,0,16.5c0,0.9,0,1.8,0,2.7c0.2,4.1-0.1-1.3,0.3-1.2     c0,0-0.8,3.9-1.1,3.8c-0.5-0.1,2.4-4.1,0-0.7c-1.6,2.2,3.6-3.3,0.4-0.5c-0.3,0.3-0.6,0.6-0.9,0.9c-1.3,1.1-1.3,1.1,0,0.1     c0.3-0.3,0.7-0.5,1-0.8c-0.7,0.5-1.5,0.9-2.2,1.3c2.8-1.1,3.2-1.3,1.1-0.5c-0.4,0.1-0.9,0.2-1.3,0.4c-3.5,1.3,3.9,0.1-0.5-0.1     c-1.4-0.1-2.8,0-4.2,0c-1.3,0-2.7,0-4,0c-0.2,0-0.5,0-0.7,0c-4.1,0.2,3.5,1.3-0.1,0.1c-0.4-0.1-0.9-0.2-1.3-0.4     c-2-0.7-1.7-0.5,1.1,0.5c0,0-2.3-1.2-2.2-1.3c-0.2,0.3,3.6,2.9,0.1-0.2c-3.2-2.8,1.9,2.7,0.4,0.5c-2.5-3.4,0.5,0.6,0,0.7     c-0.3,0-0.7-2.8-0.9-3.2c-1.1-2,0,4.8,0.2,0.6c0.2-3.1,0-6.2,0-9.3c0-45.5,0-90.9,0-136.4c0-39.9,0-79.8,0-119.6     c0-0.7,0-1.4,0-2.1c0-10.8-9.2-20-20-20c-9.5,0-19,0-28.6,0c-5.8,0-11.3,0-17.1,1.2c-10.4,2.1-20.5,8.2-27.2,16.4     c-8,9.7-12.1,21.1-12.1,33.8c0,3.2,0,6.4,0,9.6c0,34.7,0,69.5,0,104.2c0,49.7,0,99.5,0,149.2c0,37.9,0,75.8,0,113.7     c0,6.5-0.1,13.1,0,19.6c0.8,40.6,19.7,80.6,51.6,106c8.1,6.4,16.4,12.2,25.7,16.8c-3.3-5.8-6.6-11.5-9.9-17.3c0,14.3,0,28.7,0,43     c0,31.9,0,63.8,0,95.7c0,32.9,0,65.8,0,98.7c0,16.8-0.1,33.7,0,50.5c0.2,49.4,35.7,95.3,84.9,104.8c27.4,5.3,56.5,0.6,79.9-15.1     c22.3-15,39.3-37.8,45.5-64.2c4.4-18.6,3-38.5,3-57.5c0-30.4,0-60.8,0-91.2c0-33.7,0-67.3,0-101c0-20.2,0-40.4,0-60.6     c0-1,0-2,0-3c-3.3,5.8-6.6,11.5-9.9,17.3c32.4-16.1,56.9-44.8,69.3-78.5c6-16.4,8-33.8,8-51.2c0-25.5,0-50.9,0-76.4     c0-42.4,0-84.7,0-127.1c0-41.1,0-82.1,0-123.2c0-21,0.5-42.1,0-63.1c0-0.3,0-0.6,0-1c0-10.5-9.2-20.5-20-20     C430.2,68.4,421.1,76.7,421.1,87.9z"/></g></g></g><text x="0" y="1039" fill="#000000" font-size="5px" font-weight="bold" font-family="'Helvetica Neue', Helvetica, Arial-Unicode, Arial, Sans-serif">Created by shashank singh</text><text x="0" y="1044" fill="#000000" font-size="5px" font-weight="bold" font-family="'Helvetica Neue', Helvetica, Arial-Unicode, Arial, Sans-serif">from the Noun Project</text></svg>