<svg enable-background="new 0 0 1024 1024" viewBox="0 0 1024 1280" xmlns="http://www.w3.org/2000/svg"><path d="m871.1 87.9v46.5 119.2 161.5 173.5 155.1 106.5 25.3 4c0 1.9-.1 3.7-.2 5.6 0 .4 0 3.9-.4 4.1.8-.4.7-4.5 0-.6-.5 2.9-1.1 5.7-1.9 8.5-.6 2.1-1.3 4.3-2 6.3-.3.8-.7 4.2-.4 1.3.3-2.8-.1.3-.6 1.2-2.1 4.6-4.7 8.9-7.6 13-.5.7-1.2 2.3-1.9 2.6.5-.7 1-1.3 1.5-2-.5.7-1.1 1.3-1.7 2-1.4 1.6-2.9 3.2-4.4 4.8-1.5 1.5-3.1 3-4.8 4.4-.6.5-2.3 2.4-3 2.5 2.3-1.8 2.6-2 .9-.8-.4.3-.7.5-1.1.8-3.9 2.7-8.1 5.2-12.5 7.2-.6.3-4.3 1.3-1.2.6 3.2-.7-.8.3-1.3.4-2.5.9-5.1 1.7-7.6 2.4-2.4.6-4.8 1.1-7.2 1.6-3.9.7.1.8.6 0-.2.4-3.6.3-4.1.4-2.3.2-4.6.2-7 .2-1.1 0-7.6.4-8.4-.5.9.1 1.7.2 2.6.4-.9-.1-1.8-.3-2.7-.4-.9-.2-1.8-.3-2.7-.5-2.6-.6-5.3-1.2-7.9-2-1.3-.4-5.7-1.2-6.3-2.3.8.3 1.5.7 2.3 1-.6-.3-1.2-.5-1.8-.8-1.4-.7-2.8-1.3-4.2-2.1-1.9-1-3.8-2.2-5.7-3.3-1.1-.7-2.2-1.4-3.3-2.2-.3-.2-3.7-2.9-1.1-.8s-.8-.7-1.1-.9c-1-.9-2-1.7-3-2.6-1.9-1.8-3.8-3.7-5.5-5.6-.7-.8-1.4-1.7-2.2-2.5-2-2.2-1.8-.4.3.4-1.3-.5-3-4.2-3.8-5.4-1.4-2.2-2.8-4.5-4-6.9-.4-.8-.8-1.6-1.2-2.4s-.8-1.6-1.1-2.4c1.1 2.7 1.3 3.1.5 1.1-1.6-4.2-2.9-8.5-3.9-12.9-.3-1.3-.5-2.7-.8-4-1-4.5.3 3.5 0 .5s-.6-6-.6-9c0-1.1 0-2.3 0-3.4 0-41.5 0-83 0-124.6 0-46.8 0-93.6 0-140.4 0-2.7 0-5.4 0-8.1 0-10.8-9.2-20-20-20-22.4 0-44.8 0-67.2 0-11.4 0-22.9 0-34.3 0-1 0-2 0-2.9 0-.1 0-.3 0-.4 0-.5 0-.9 0-1.4 0-2.2-.2-1.8-.1 1.3.3 0 .1-4.1-1.2-4.4-1.2-2.4-.2 4 2.4.6.2-.2-.1-3.4-1.9-3.3-2 .1-.2 3.5 3.2.1-.2-3.3-3.3 0 0-.2.1-.1.1-1.9-3.1-2-3.3-1.7-2.7 1.2 1 .4 1.2-.2 0-1.1-3.5-1.1-3.8-.4-2.2-.4-1.7.1 1.4-.1-.9-.1-1.8-.1-2.7-.8-39.5 0-79 0-118.5 0-49.8 0-99.6 0-149.5 0-7.1 0-14.2.5-21.4.2-2.5.4-5.1.6-7.6.2-2.2-.1-5.6.8-7.6-.1.9-.2 1.7-.3 2.6.1-.9.3-1.8.4-2.7.2-1.4.4-2.7.7-4.1.5-2.7 1-5.4 1.5-8.1 2.2-10.6 5.1-21 8.6-31.2.7-2.1 1.5-4.2 2.3-6.3.5-1.2 1-2.5 1.5-3.7.7-1.6.8-4.9 0-.2.4-2.4 2.2-5.1 3.3-7.3 1.1-2.4 2.3-4.8 3.5-7.2 4.8-9.4 10.2-18.6 16.2-27.3 1.2-1.8 2.5-3.6 3.8-5.4.8-1.1 1.6-2.1 2.4-3.2 2.7-3.7-2.8 3.5.1-.1 3.3-4.1 6.6-8.2 10.2-12.1 6.9-7.7 14.3-14.9 22.1-21.7 1.8-1.6 3.7-3.1 5.6-4.7 1-.8 2.1-1.6 3.1-2.5 3.6-2.9-3.6 2.7.1-.1 4.3-3.1 8.5-6.2 13-9.1 8.5-5.6 17.3-10.6 26.5-15.1 2.4-1.2 4.8-2.3 7.2-3.4 1.1-.5 2.5-1.4 3.7-1.6-4.7.8-1.5.6.2 0 5-2 10-3.8 15.1-5.5 9.9-3.2 20-5.8 30.2-7.7 2.7-.5 5.4-1 8.1-1.4.5-.1.9-.1 1.4-.2 2.2-.3 1.8-.3-1.2.2.9-.4 2.4-.3 3.4-.4 5.8-.7 11.5-1.1 17.3-1.3 5.7-.2 11.4-.2 17.1-.2h22.2 6.5.8 1.4c2.2.2 1.8.1-1.3-.3 0 .1 5.1 1.1 5.1 1.4-.1.2-4.2-2.2-.1.2s-.1 0 .1-.2c0 0 1.7 1.5 1.9 1.7 3.3 3.3 0 0 .2-.1.1-.1 1.9 3.1 2 3.3 2.3 3.6-1-4.2 0 0 .1.2 1 3.8 1 3.8-.1-.9-.2-1.8-.4-2.7-.2 1.2-.1 2.1-.1 3 .2 10.5 9 20.5 20 20 10.6-.5 20.3-8.8 20-20-.6-28.4-23.4-49.9-51.6-50-11.7 0-23.4 0-35.1 0-46.5.1-92.8 12.7-132.8 36.5-78.8 46.9-128.4 133.3-128.6 225-.1 43.1 0 86.3 0 129.4 0 47.6-.2 95.3 0 142.9.1 18.9 9.8 37.3 27.1 45.9 12.2 6 24.5 5.6 37.5 5.6h83.8 6.5c-6.7-6.7-13.3-13.3-20-20v109.2 151.1 13.8c0 17.3 4 33.8 11.4 49.3 9.4 19.5 25.8 36.4 44.8 46.6 21.8 11.6 46.1 15 70.3 10.8 46.2-7.9 80.6-48.1 86-93.7.9-7.2.7-14.3.7-21.6 0-28.4 0-56.8 0-85.2 0-48.4 0-96.9 0-145.3 0-57.9 0-115.7 0-173.6 0-56.6 0-113.2 0-169.8 0-45.2 0-90.4 0-135.6 0-22.8 0-45.6 0-68.3 0-1 0-2 0-3 0-10.5-9.2-20.5-20-20-10.9.5-20 8.8-20 20z"/><path d="m421.1 87.9v50.9 116.9 128.6 87.3c0 6.9.2 13.8-.3 20.7-.1 1.8-.9 4.2-.6 5.9-.1-.6.8-4.6.1-.9-.2 1-.3 1.9-.5 2.9-.8 4.1-1.8 8.1-3 12.1-.6 1.8-1.2 3.7-1.8 5.5-.2.7-2.4 6.4-1.3 3.7 1-2.7-1.3 2.9-1.6 3.5-.9 1.9-1.9 3.8-2.9 5.7-1.8 3.3-3.8 6.6-6 9.7-1 1.5-2 3.4-3.3 4.6 2.9-2.7 1.3-1.7.5-.7-.9 1.1-1.8 2.2-2.7 3.3-2.5 2.9-5.1 5.6-7.8 8.2-1.4 1.3-2.8 2.6-4.2 3.8-.7.6-1.4 1.2-2.2 1.8-.5.4-3.7 2.9-1.3 1.1 2.3-1.7-2.6 1.8-3.1 2.2-1.6 1.1-3.1 2.1-4.8 3.1-3.4 2.1-7 4.1-10.6 5.9-6.2 3.1-9.9 10.6-9.9 17.3v41.6 92.7 97.6 54.8c0 3.4-.2 6.7-.4 10.1-.3 3.9.7-3.7 0 .1-.2 1.3-.5 2.7-.7 4-.6 3.1-1.5 6.1-2.4 9.1-.4 1.3-.9 2.5-1.3 3.8-1.2 3.5 1.6-3.3 0 .1-1.2 2.6-2.5 5.1-3.9 7.6s-3 4.8-4.6 7.2c-2 3.1 2.3-2.7 0 .1-1 1.2-2 2.3-3 3.5-1.9 2.1-3.9 4.1-6 6-1 .9-1.9 1.7-3 2.6-.5.4-1 .8-1.5 1.2-2 1.7 3.1-2.1.9-.7-4.9 3-9.5 6.1-14.7 8.6-.3.1-1.5.9-1.8.8-.2 0 3.9-1.4 1.7-.8-1.3.4-2.5.9-3.7 1.4-3 1-6 1.8-9 2.5-1.3.3-2.7.5-4 .8-.7.1-1.4.1-2 .3 0 0 4.2-.4 1.9-.3-3.2.2-6.4.5-9.7.5-2.8 0-5.5-.3-8.3-.5-2.3-.1 1.9.3 1.9.3-.6-.2-1.4-.2-2-.3-1.6-.3-3.1-.6-4.6-.9-2.8-.6-5.6-1.4-8.4-2.4-1.3-.4-2.5-1-3.7-1.4-2.2-.7 1.9.7 1.7.8-.4.1-2-.9-2.4-1.1-2.6-1.2-5.1-2.6-7.5-4-.9-.5-7.2-3.8-7.1-4.7 0-.1 3.1 2.6 1.5 1.1-.5-.4-1-.8-1.5-1.2-1-.8-2-1.7-3-2.6-2.2-2.1-4.4-4.2-6.4-6.5-.9-1-1.7-2-2.5-3-2.4-2.8 2 3 0-.1-1.7-2.5-3.4-5.1-4.9-7.7-1.3-2.3-2.4-4.7-3.6-7-1.6-3.4 1.2 3.4 0-.1-.5-1.5-1.1-2.9-1.5-4.4-.9-2.8-1.6-5.6-2.2-8.4-.3-1.3-.5-2.7-.7-4-.6-3.4.4 3.9 0-.8-1.3-14.9-.3-30.3-.3-45.3 0-30.4 0-60.7 0-91.1 0-32.8 0-65.7 0-98.5 0-19.4 0-38.8 0-58.2 0-1 0-1.9 0-2.9 0-6.7-3.7-14.2-9.9-17.3-3.8-1.9-7.6-4-11.2-6.3-2-1.3-4-2.6-5.9-4-.6-.4-1.7-1.5-2.3-1.7 2 1.5 2.4 1.9 1.2.9-.6-.4-1.1-.9-1.7-1.3-3.3-2.7-6.4-5.6-9.4-8.7-1.5-1.5-2.9-3.1-4.3-4.7-.6-.7-1.2-1.4-1.8-2.2-.4-.5-3.4-4.3-1.5-1.9 2 2.6-.8-1.2-1-1.4-.6-.8-1.1-1.5-1.6-2.3-1.2-1.8-2.4-3.6-3.5-5.4-2.3-3.9-4.5-7.9-6.4-12-.1-.3-1.9-4.6-.7-1.6 1.2 3.1-.5-1.4-.6-1.6-.7-1.8-1.3-3.6-1.9-5.5-1.5-4.6-2.7-9.4-3.6-14.1-.2-1-.3-1.9-.5-2.9-.9-4.8.3 3.3 0 .2-.2-2.2-.5-4.5-.6-6.7-.2-2.5-.2-5.1-.2-7.6 0-.5 0-1.1 0-1.6 0-3.3 0-6.6 0-9.9 0-33.9 0-67.8 0-101.6 0-48.8 0-97.5 0-146.3 0-37.9 0-75.8 0-113.7 0-7.2-.1-14.4 0-21.6 0-.1 0-.2 0-.3.1-5.3.1 0-.2-.1-.1 0 .7-2.9.8-3.2.2-.6.4-1.2.6-1.9-1.1 2.6-1.4 3.2-.7 1.8.6-.7 1.2-2 1.6-2.8 1.5-2.7-.3 1.5-.8 1 .4.3 4.8-6.2 2.6-2.8-1.4 2.1 0 .1 1.2-.6.3-.2 2.3-1.3 2.3-1.2.4.8-4.2 1.3-1.2.6.1 0 3.8-1 3.8-1 0 .4-4.9.4-.6.2h.8 1.1 6.4 17.5 9.8c-6.7-6.7-13.3-13.3-20-20v106 147.3 13.3c.2 20.2 14.1 39.1 34.6 42.6 8.5 1.4 18.4 1.6 26.8-.2 14.4-3 25.5-13.8 30.7-27.2 2.5-6.5 2.6-13.3 2.6-20.1 0-45 0-90 0-135 0-41.5 0-83.1 0-124.6 0-.7 0-1.4 0-2.1-6.7 6.7-13.3 13.3-20 20h68.6c-6.7-6.7-13.3-13.3-20-20v106 147.3 13.3c.2 20.2 14.1 39.1 34.6 42.6 8.5 1.4 18.4 1.6 26.8-.2 14.4-3 25.5-13.8 30.7-27.2 2.5-6.5 2.6-13.3 2.6-20.1 0-45 0-90 0-135 0-41.5 0-83.1 0-124.6 0-.7 0-1.4 0-2.1-6.7 6.7-13.3 13.3-20 20h30.8 4.1 1.5c4.2 0-4-1.2 0 0 1 .3 2.1.7 3.2.9 2 .4-3.9-2.3-.6-.2.9.6 1.8 1.2 2.8 1.7 2 .9-2.9-2.9-.5-.3.6.6 1.5 1.8 2.2 2.3 1.7 1.1-2-3.4-.4-.5.1.1 2 3.3 1.9 3.4-.4.2-1.4-4.8-.4-.5.1.3.9 3.2.8 3.2-1.1-.3-1.1-5.5-1-.3.2 10.5 9 20.5 20 20 10.6-.5 20.3-8.8 20-20-.6-28.1-23.1-49.8-51.1-50-11.3-.1-22.6 0-33.9 0-10.8 0-20 9.2-20 20v101.1 147.1 16.5 2.7c.2 4.1-.1-1.3.3-1.2 0 0-.8 3.9-1.1 3.8-.5-.1 2.4-4.1 0-.7-1.6 2.2 3.6-3.3.4-.5-.3.3-.6.6-.9.9-1.3 1.1-1.3 1.1 0 .1.3-.3.7-.5 1-.8-.7.5-1.5.9-2.2 1.3 2.8-1.1 3.2-1.3 1.1-.5-.4.1-.9.2-1.3.4-3.5 1.3 3.9.1-.5-.1-1.4-.1-2.8 0-4.2 0-1.3 0-2.7 0-4 0-.2 0-.5 0-.7 0-4.1.2 3.5 1.3-.1.1-.4-.1-.9-.2-1.3-.4-2-.7-1.7-.5 1.1.5 0 0-2.3-1.2-2.2-1.3-.2.3 3.6 2.9.1-.2-3.2-2.8 1.9 2.7.4.5-2.4-3.4.5.6 0 .7-.3 0-.7-2.8-.9-3.2-1.1-2 0 4.8.2.6.2-3.1 0-6.2 0-9.3 0-45.5 0-90.9 0-136.4 0-39.9 0-79.8 0-119.6 0-.7 0-1.4 0-2.1 0-10.8-9.2-20-20-20-22.9 0-45.8 0-68.6 0-10.8 0-20 9.2-20 20v101.1 147.1 16.5 2.7c.2 4.1-.1-1.3.3-1.2 0 0-.8 3.9-1.1 3.8-.5-.1 2.4-4.1 0-.7-1.6 2.2 3.6-3.3.4-.5-.3.3-.6.6-.9.9-1.3 1.1-1.3 1.1 0 .1.3-.3.7-.5 1-.8-.7.5-1.5.9-2.2 1.3 2.8-1.1 3.2-1.3 1.1-.5-.4.1-.9.2-1.3.4-3.5 1.3 3.9.1-.5-.1-1.4-.1-2.8 0-4.2 0-1.3 0-2.7 0-4 0-.2 0-.5 0-.7 0-4.1.2 3.5 1.3-.1.1-.4-.1-.9-.2-1.3-.4-2-.7-1.7-.5 1.1.5 0 0-2.3-1.2-2.2-1.3-.2.3 3.6 2.9.1-.2-3.2-2.8 1.9 2.7.4.5-2.5-3.4.5.6 0 .7-.3 0-.7-2.8-.9-3.2-1.1-2 0 4.8.2.6.2-3.1 0-6.2 0-9.3 0-45.5 0-90.9 0-136.4 0-39.9 0-79.8 0-119.6 0-.7 0-1.4 0-2.1 0-10.8-9.2-20-20-20-9.5 0-19 0-28.6 0-5.8 0-11.3 0-17.1 1.2-10.4 2.1-20.5 8.2-27.2 16.4-8 9.7-12.1 21.1-12.1 33.8v9.6 104.2 149.2 113.7c0 6.5-.1 13.1 0 19.6.8 40.6 19.7 80.6 51.6 106 8.1 6.4 16.4 12.2 25.7 16.8-3.3-5.8-6.6-11.5-9.9-17.3v43 95.7 98.7c0 16.8-.1 33.7 0 50.5.2 49.4 35.7 95.3 84.9 104.8 27.4 5.3 56.5.6 79.9-15.1 22.3-15 39.3-37.8 45.5-64.2 4.4-18.6 3-38.5 3-57.5 0-30.4 0-60.8 0-91.2 0-33.7 0-67.3 0-101 0-20.2 0-40.4 0-60.6 0-1 0-2 0-3-3.3 5.8-6.6 11.5-9.9 17.3 32.4-16.1 56.9-44.8 69.3-78.5 6-16.4 8-33.8 8-51.2 0-25.5 0-50.9 0-76.4 0-42.4 0-84.7 0-127.1 0-41.1 0-82.1 0-123.2 0-21 .5-42.1 0-63.1 0-.3 0-.6 0-1 0-10.5-9.2-20.5-20-20-10.8.4-19.9 8.7-19.9 19.9z"/><g font-family="'Helvetica Neue', Helvetica, Arial-Unicode, Arial, Sans-serif" font-size="5" font-weight="bold"><text y="1039">Created by shashank singh</text><text y="1044">from the Noun Project</text></g></svg>